<?xml version="1.0" encoding="UTF-8" ?>
<!DOCTYPE svg PUBLIC "-//W3C//DTD SVG 1.1//EN" "http://www.w3.org/Graphics/SVG/1.1/DTD/svg11.dtd">
<svg width="667pt" height="586pt" viewBox="0 0 667 586" version="1.1" xmlns="http://www.w3.org/2000/svg">
<path fill="#000000" opacity="1.00" d=" M 275.96 100.96 C 334.51 76.79 401.26 66.73 463.05 83.95 C 530.81 100.51 589.38 149.73 617.23 213.75 C 639.33 264.37 647.49 323.94 627.92 376.65 C 640.55 381.61 654.97 387.84 659.42 401.97 C 663.25 413.65 655.67 425.12 646.07 431.08 C 622.88 445.89 594.16 446.52 567.90 450.70 C 495.31 498.90 403.71 505.16 319.27 498.09 C 314.83 509.18 312.11 520.92 311.82 532.91 C 290.64 527.86 270.92 512.34 268.73 489.41 C 258.76 485.77 248.49 482.91 238.31 480.05 C 228.01 495.57 222.65 514.35 221.82 532.91 C 196.82 527.56 175.44 505.79 178.66 478.77 C 167.84 466.85 160.27 451.11 160.61 434.57 C 133.97 410.33 116.33 376.59 111.66 340.86 C 86.12 355.57 60.91 370.91 35.82 386.37 C 25.91 364.35 18.98 340.34 11.12 317.25 C 35.92 311.25 61.02 306.41 85.60 299.55 C 59.73 292.22 33.54 285.94 7.91 277.83 C 18.03 256.06 28.56 234.48 39.07 212.91 C 65.55 228.97 90.57 247.55 116.88 263.99 C 140.70 188.43 204.65 131.53 275.96 100.96 M 162.39 218.38 C 133.75 258.11 122.20 310.76 136.85 358.18 C 137.14 358.39 137.72 358.81 138.01 359.02 C 140.99 376.28 151.87 391.34 161.78 405.36 C 159.32 396.13 159.98 386.53 160.84 377.13 C 168.07 358.06 189.25 350.84 207.43 346.43 C 242.61 339.08 281.20 338.72 311.98 317.94 C 281.46 347.73 236.09 350.18 199.37 368.38 C 187.07 373.99 175.52 386.83 181.59 401.12 C 206.56 372.76 246.07 363.39 282.08 359.17 C 260.34 367.97 238.72 377.83 219.69 391.69 C 201.04 404.73 177.68 423.22 183.59 449.05 C 201.61 412.33 239.93 392.51 277.98 382.95 C 248.83 402.84 217.69 424.15 202.07 457.00 C 195.62 469.78 198.45 486.11 208.67 496.17 C 218.78 440.75 270.92 410.31 314.13 382.14 C 340.71 365.13 365.83 340.35 370.06 307.62 C 375.18 328.55 370.46 352.09 357.15 369.16 C 341.63 390.92 318.01 404.58 297.60 421.17 L 296.93 420.83 C 281.13 433.80 264.22 445.66 250.86 461.34 C 337.27 488.07 434.31 487.12 518.76 453.64 C 498.56 454.24 478.35 453.75 458.16 454.08 C 450.49 457.11 443.51 466.64 434.42 461.86 C 429.78 457.65 431.90 450.00 436.95 446.95 C 464.87 435.86 468.87 398.22 449.90 377.10 C 445.29 367.31 429.91 364.18 431.86 351.68 C 440.11 343.06 449.51 352.49 456.65 356.97 C 505.46 358.08 554.51 359.96 602.54 369.55 C 608.31 371.72 609.49 365.04 609.87 360.84 C 628.57 303.83 612.57 238.21 579.29 189.41 C 542.95 133.66 477.56 100.22 411.77 97.04 C 315.90 92.90 216.89 138.56 162.39 218.38 M 477.95 379.03 C 484.64 391.82 485.57 406.01 483.23 420.16 C 481.62 424.34 480.11 428.57 478.85 432.88 C 511.05 433.45 543.43 433.22 575.33 428.27 C 596.44 425.86 619.65 424.09 637.33 411.10 C 642.05 408.02 635.07 404.14 633.21 401.75 L 632.47 402.05 C 620.88 394.70 607.02 392.14 593.82 389.18 C 555.59 382.38 516.76 378.98 477.95 379.03 M 297.36 494.36 C 296.34 500.34 303.34 493.34 297.36 494.36 Z" />
<path fill="#fbd6db" opacity="1.00" d=" M 162.39 218.38 C 216.89 138.56 315.90 92.90 411.77 97.04 C 477.56 100.22 542.95 133.66 579.29 189.41 C 499.74 116.93 377.06 107.19 281.14 149.96 C 272.53 136.26 247.82 144.15 252.56 160.87 C 220.06 175.85 190.24 196.03 162.39 218.38 M 273.97 129.99 C 357.71 106.79 450.36 106.59 530.08 143.96 C 456.55 90.48 354.52 94.70 273.97 129.99 Z" />
<path fill="#ffffff" opacity="1.00" d=" M 273.97 129.99 C 354.52 94.70 456.55 90.48 530.08 143.96 C 450.36 106.59 357.71 106.79 273.97 129.99 Z" />
<path fill="#f59cb0" opacity="1.00" d=" M 281.14 149.96 C 377.06 107.19 499.74 116.93 579.29 189.41 C 612.57 238.21 628.57 303.83 609.87 360.84 C 607.50 363.81 604.96 366.63 602.54 369.55 C 554.51 359.96 505.46 358.08 456.65 356.97 C 449.51 352.49 440.11 343.06 431.86 351.68 C 429.91 364.18 445.29 367.31 449.90 377.10 C 468.87 398.22 464.87 435.86 436.95 446.95 C 413.03 439.77 392.99 422.44 368.22 417.55 C 351.75 414.19 339.44 428.57 323.62 428.87 C 314.24 430.40 305.75 424.93 297.60 421.17 C 318.01 404.58 341.63 390.92 357.15 369.16 C 370.46 352.09 375.18 328.55 370.06 307.62 C 365.83 340.35 340.71 365.13 314.13 382.14 C 270.92 410.31 218.78 440.75 208.67 496.17 C 198.45 486.11 195.62 469.78 202.07 457.00 C 217.69 424.15 248.83 402.84 277.98 382.95 C 239.93 392.51 201.61 412.33 183.59 449.05 C 177.68 423.22 201.04 404.73 219.69 391.69 C 238.72 377.83 260.34 367.97 282.08 359.17 C 246.07 363.39 206.56 372.76 181.59 401.12 C 175.52 386.83 187.07 373.99 199.37 368.38 C 236.09 350.18 281.46 347.73 311.98 317.94 C 281.20 338.72 242.61 339.08 207.43 346.43 C 189.25 350.84 168.07 358.06 160.84 377.13 C 152.81 371.63 145.81 364.82 138.01 359.02 C 137.72 358.81 137.14 358.39 136.85 358.18 C 122.20 310.76 133.75 258.11 162.39 218.38 C 190.24 196.03 220.06 175.85 252.56 160.87 C 259.81 177.27 288.57 168.67 281.14 149.96 M 400.05 191.80 C 405.06 206.17 422.91 213.01 436.65 206.82 C 453.02 202.81 464.31 188.37 479.72 182.97 C 485.04 191.17 480.49 206.34 492.25 210.06 C 512.80 216.18 528.16 197.17 537.91 181.90 C 526.34 187.88 513.48 197.85 499.86 192.49 C 489.44 183.47 502.44 170.10 500.66 159.25 C 479.19 162.39 462.03 178.50 441.92 185.87 C 433.85 189.54 419.91 196.13 415.04 185.48 C 414.60 171.77 424.15 161.02 430.84 149.99 C 416.35 159.25 397.79 172.29 400.05 191.80 M 206.05 191.05 C 185.15 210.83 158.71 235.61 162.66 267.08 C 173.26 273.96 184.98 265.74 194.07 260.04 C 214.71 244.99 231.98 224.79 242.49 201.41 C 245.15 194.15 249.42 181.85 240.84 176.90 C 227.64 173.74 215.97 183.78 206.05 191.05 M 424.93 260.94 C 446.36 232.29 493.43 233.06 515.19 260.82 C 508.80 241.45 489.33 225.52 468.30 227.86 C 448.39 227.33 430.53 242.30 424.93 260.94 M 534.88 263.89 C 550.76 236.88 592.56 236.71 608.05 263.96 C 603.73 247.97 591.63 231.65 573.72 231.02 C 553.89 229.01 540.07 246.69 534.88 263.89 M 462.75 257.48 C 440.43 261.13 422.30 283.70 426.04 306.61 C 427.77 335.22 462.44 355.33 488.15 342.06 C 511.61 332.72 521.46 301.51 508.91 280.01 C 500.32 263.81 480.83 254.27 462.75 257.48 M 563.81 264.47 C 529.20 272.95 525.44 329.04 557.80 343.16 C 575.92 352.25 598.28 338.41 603.13 319.83 C 613.64 294.68 593.48 258.22 563.81 264.47 Z" />
<path fill="#ffffff" opacity="1.00" d=" M 252.56 160.87 C 247.82 144.15 272.53 136.26 281.14 149.96 C 288.57 168.67 259.81 177.27 252.56 160.87 Z" />
<path fill="#ffffff" opacity="1.00" d=" M 400.05 191.80 C 397.79 172.29 416.35 159.25 430.84 149.99 C 424.15 161.02 414.60 171.77 415.04 185.48 C 419.91 196.13 433.85 189.54 441.92 185.87 C 462.03 178.50 479.19 162.39 500.66 159.25 C 502.44 170.10 489.44 183.47 499.86 192.49 C 513.48 197.85 526.34 187.88 537.91 181.90 C 528.16 197.17 512.80 216.18 492.25 210.06 C 480.49 206.34 485.04 191.17 479.72 182.97 C 464.31 188.37 453.02 202.81 436.65 206.82 C 422.91 213.01 405.06 206.17 400.05 191.80 Z" />
<path fill="#ffffff" opacity="1.00" d=" M 206.05 191.05 C 215.97 183.78 227.64 173.74 240.84 176.90 C 249.42 181.85 245.15 194.15 242.49 201.41 C 231.98 224.79 214.71 244.99 194.07 260.04 C 184.98 265.74 173.26 273.96 162.66 267.08 C 158.71 235.61 185.15 210.83 206.05 191.05 Z" />
<path fill="#000000" opacity="1.00" d=" M 424.93 260.94 C 430.53 242.30 448.39 227.33 468.30 227.86 C 489.33 225.52 508.80 241.45 515.19 260.82 C 493.43 233.06 446.36 232.29 424.93 260.94 Z" />
<path fill="#000000" opacity="1.00" d=" M 534.88 263.89 C 540.07 246.69 553.89 229.01 573.72 231.02 C 591.63 231.65 603.73 247.97 608.05 263.96 C 592.56 236.71 550.76 236.88 534.88 263.89 Z" />
<path fill="#ffffff" opacity="1.00" d=" M 462.75 257.48 C 480.83 254.27 500.32 263.81 508.91 280.01 C 521.46 301.51 511.61 332.72 488.15 342.06 C 462.44 355.33 427.77 335.22 426.04 306.61 C 422.30 283.70 440.43 261.13 462.75 257.48 M 479.04 288.50 C 467.99 291.65 462.85 307.28 471.30 315.68 C 478.74 327.87 500.91 322.54 501.55 308.16 C 505.58 295.11 490.95 284.37 479.04 288.50 Z" />
<path fill="#ffffff" opacity="1.00" d=" M 563.81 264.47 C 593.48 258.22 613.64 294.68 603.13 319.83 C 598.28 338.41 575.92 352.25 557.80 343.16 C 525.44 329.04 529.20 272.95 563.81 264.47 M 549.79 290.39 C 538.00 295.40 538.54 316.75 551.44 319.89 C 569.33 320.82 568.11 286.24 549.79 290.39 Z" />
<path fill="#000000" opacity="1.00" d=" M 479.04 288.50 C 490.95 284.37 505.58 295.11 501.55 308.16 C 500.91 322.54 478.74 327.87 471.30 315.68 C 462.85 307.28 467.99 291.65 479.04 288.50 Z" />
<path fill="#000000" opacity="1.00" d=" M 549.79 290.39 C 568.11 286.24 569.33 320.82 551.44 319.89 C 538.54 316.75 538.00 295.40 549.79 290.39 Z" />
<path fill="#f276a0" opacity="1.00" d=" M 138.01 359.02 C 145.81 364.82 152.81 371.63 160.84 377.13 C 159.98 386.53 159.32 396.13 161.78 405.36 C 151.87 391.34 140.99 376.28 138.01 359.02 Z" />
<path fill="#f277a0" opacity="1.00" d=" M 602.54 369.55 C 604.96 366.63 607.50 363.81 609.87 360.84 C 609.49 365.04 608.31 371.72 602.54 369.55 Z" />
<path fill="#faaf40" opacity="1.00" d=" M 477.95 379.03 C 516.76 378.98 555.59 382.38 593.82 389.18 C 607.02 392.14 620.88 394.70 632.47 402.05 C 585.14 420.29 533.02 417.26 483.23 420.16 C 485.57 406.01 484.64 391.82 477.95 379.03 M 489.90 391.17 C 504.00 400.23 526.11 396.91 542.40 392.49 C 531.45 379.66 502.70 381.74 489.90 391.17 Z" />
<path fill="#ffffff" opacity="1.00" d=" M 489.90 391.17 C 502.70 381.74 531.45 379.66 542.40 392.49 C 526.11 396.91 504.00 400.23 489.90 391.17 Z" />
<path fill="#f05a28" opacity="1.00" d=" M 632.47 402.05 L 633.21 401.75 C 635.07 404.14 642.05 408.02 637.33 411.10 C 619.65 424.09 596.44 425.86 575.33 428.27 C 543.43 433.22 511.05 433.45 478.85 432.88 C 480.11 428.57 481.62 424.34 483.23 420.16 C 533.02 417.26 585.14 420.29 632.47 402.05 Z" />
<path fill="#f276a0" opacity="1.00" d=" M 323.62 428.87 C 339.44 428.57 351.75 414.19 368.22 417.55 C 392.99 422.44 413.03 439.77 436.95 446.95 C 431.90 450.00 429.78 457.65 434.42 461.86 C 443.51 466.64 450.49 457.11 458.16 454.08 C 478.35 453.75 498.56 454.24 518.76 453.64 C 434.31 487.12 337.27 488.07 250.86 461.34 C 264.22 445.66 281.13 433.80 296.93 420.83 L 297.60 421.17 C 305.75 424.93 314.24 430.40 323.62 428.87 Z" />
<path fill="#5d3c44" opacity="1.00" d=" M 297.36 494.36 C 303.34 493.34 296.34 500.34 297.36 494.36 Z" />
</svg>
