<?xml version="1.0" standalone="no"?><!DOCTYPE svg PUBLIC "-//W3C//DTD SVG 1.1//EN" "http://www.w3.org/Graphics/SVG/1.1/DTD/svg11.dtd"><svg class="icon" height="512" viewBox="0 0 1024 1024" version="1.1" xmlns="http://www.w3.org/2000/svg"><path d="M826 509.59V758c0 21.8-6.36 41.35-20.07 58.3-15.22 18.83-34.93 30-59 33.21a100.92 100.92 0 0 1-13.2 0.86q-65.87 0.09-131.75 0H599v-3.36-222.5c0-14.13-4.85-26-15.37-35.5-8.68-7.8-19-11.46-30.63-11.49-29.83-0.06-59.67-0.12-89.5 0-26.37 0.11-46.08 20.13-46.09 46.64v226.08c-1.06 0-1.87 0.12-2.68 0.12H281.98c-42.29-0.07-78.12-27.71-88.74-68.31a94.12 94.12 0 0 1-2.87-24V510.19c-1.15 1.27-1.86 2-2.55 2.8q-24 27.13-48.08 54.25c-6.18 7-13.92 9.7-23 7.42-8.81-2.22-14.47-8-16.57-16.91-1.86-7.87 0.33-14.8 5.67-20.81q18.33-20.66 36.64-41.35L315.75 300.1l129.63-146.31c12.95-14.61 28.69-24.51 48.08-27.93 25.62-4.52 48.59 1.69 68.08 18.78 8.6 7.54 16 16.5 23.61 25.08Q651.63 244.41 718 319.23l168.64 189.9c8.47 9.53 17 19 25.36 28.63a22.61 22.61 0 0 1-11.4 36.85c-9.07 2.33-16.8-0.41-23-7.29-7.43-8.22-14.73-16.56-22.09-24.84l-27.89-31.4c-0.43-0.4-0.85-0.75-1.62-1.49z" fill="#F42F34" /></svg>